<?xml version="1.0" encoding="utf-8"?>
<!-- Generator: Adobe Illustrator 16.0.0, SVG Export Plug-In . SVG Version: 6.00 Build 0)  -->
<!DOCTYPE svg PUBLIC "-//W3C//DTD SVG 1.1//EN" "http://www.w3.org/Graphics/SVG/1.1/DTD/svg11.dtd">
<svg version="1.1" id="Layer_1" xmlns="http://www.w3.org/2000/svg" xmlns:xlink="http://www.w3.org/1999/xlink" x="0px" y="0px"
	 width="494px" height="120.5px" viewBox="0 0 494 120.5" enable-background="new 0 0 494 120.5" xml:space="preserve">
<g>
	<g>
		<path fill="#414042" d="M27.578,107.084L7.292,59.317l17.605,0.059l10.888,27.483l11.07-27.41l17.604,0.059l-20.602,47.631
			L27.578,107.084z"/>
		<path fill="#414042" d="M64.856,83.075c0.025-7.476,2.601-13.431,7.632-17.862c5.031-4.526,11.476-6.777,19.332-6.75
			c7.572,0.025,13.716,2.413,18.527,7.161c4.811,4.653,7.159,10.435,7.136,17.344c-0.006,1.8-0.108,3.599-0.303,5.3l-34.83-0.115
			c0.273,3.404,4.431,5.599,10.582,5.617c4.069,0.016,7.482-1.201,10.234-3.654l9.906,9.496c-5.888,5.852-12.9,8.76-21.133,8.73
			c-8.14-0.027-14.663-2.316-19.665-6.783C67.273,97,64.831,91.027,64.856,83.552V83.075L64.856,83.075z M100.085,77.609
			c0.01-3.028-3.767-5.692-8.309-5.707c-4.922-0.018-9,2.524-9.295,5.646L100.085,77.609z"/>
		<path fill="#414042" d="M125.29,41.443l17.507,0.058l-0.154,46.376c-0.013,3.879,1.498,5.496,5.189,5.508
			c1.229,0.006,2.366-0.089,3.408-0.271l-0.049,14.763c-2.18,0.468-4.923,0.74-8.236,0.729
			c-11.926-0.039-17.868-6.116-17.827-18.328L125.29,41.443z"/>
		<path fill="#414042" d="M202.062,66.021c5.282,4.938,7.913,10.912,7.89,17.817c-0.023,6.912-2.693,12.864-8.009,17.863
			c-5.316,4.901-11.668,7.342-19.146,7.315c-7.477-0.023-13.905-2.508-19.188-7.443c-5.19-5.033-7.819-11.006-7.796-17.915
			s2.692-12.863,7.915-17.767c5.316-5,11.761-7.439,19.237-7.416C190.444,58.506,196.78,60.989,202.062,66.021z M189.773,90.307
			c1.992-1.791,2.946-3.966,2.955-6.521c0.008-2.558-0.932-4.734-2.912-6.539c-1.982-1.808-4.251-2.761-6.903-2.769
			c-5.393-0.019-9.854,4.228-9.871,9.24c-0.017,5.018,4.417,9.29,9.809,9.309C185.502,93.036,187.779,92.1,189.773,90.307z"/>
		<path fill="#8EC63F" d="M218.771,107.721l0.159-47.699l14.103,0.047l-0.02,5.962c1.812-4.16,6.648-6.983,12.423-6.963
			c6.437,0.021,10.779,2.591,12.94,7.616c2.666-5.009,7.881-7.544,15.737-7.521C284.809,59.198,290.841,66.602,290.8,79
			l-0.04,12.021c-0.013,3.688,0.739,5.02,3.104,5.025l0.854,0.003l0.569-0.096l-0.04,11.928c-1.325,0.47-3.313,0.653-6.062,0.646
			c-8.426-0.027-12.572-4.588-12.543-13.674l0.047-14.193c0.021-5.586-2.43-9.002-6.877-9.018c-4.543-0.016-7.774,3.854-7.795,9.439
			l-0.09,26.781l-14.103-0.049l0.091-27.252c0.02-5.586-2.524-9.002-7.068-9.019c-4.542-0.015-7.869,3.854-7.888,9.438
			l-0.089,26.781L218.771,107.721z"/>
		<path fill="#8EC63F" d="M301.004,84.052c0.023-7.478,2.505-13.526,7.347-18.054c4.847-4.622,11.102-6.873,18.576-6.848
			c7.287,0.024,13.147,2.411,17.677,7.063c4.525,4.653,6.78,10.338,6.76,17.248c-0.007,1.607-0.107,3.125-0.205,4.545l-36.062-0.12
			c0.265,5.681,5.176,9.386,12.652,9.41c4.449,0.015,8.333-1.483,11.654-4.598l8.208,7.881c-5.603,5.752-12.521,8.666-20.564,8.639
			c-7.854-0.024-14.096-2.317-18.909-6.78c-4.812-4.559-7.156-10.53-7.134-18.006L301.004,84.052z M337.178,78.777
			c0.017-4.449-4.61-7.965-10.29-7.984c-6.148-0.021-11.18,3.463-11.571,7.911L337.178,78.777z"/>
		<path fill="#8EC63F" d="M364.395,92.309c2.642,3.131,7.648,5.229,13.047,5.246c4.824,0.019,7.196-1.3,7.205-3.854
			c0.005-0.944-0.562-1.704-1.601-2.277c-1.041-0.568-2.933-1.236-5.77-1.908c-2.837-0.673-5.015-1.345-6.431-1.82
			c-7.277-2.582-10.957-6.946-10.936-13.288c0.016-4.825,1.826-8.606,5.433-11.244c3.604-2.733,7.963-4.044,13.169-4.027
			c6.722,0.022,12.108,2.124,16.354,6.208l-6.75,9.252c-2.55-2.373-5.953-3.52-10.021-3.533c-3.026-0.01-4.733,1.215-4.741,3.015
			c-0.004,1.229,0.47,1.894,1.979,2.562c1.798,0.764,5.771,1.439,11.062,3.352c7.847,2.674,11.711,7.23,11.689,13.574
			c-0.033,9.746-7.056,16.063-21.064,16.019c-9.275-0.031-16.176-2.892-20.795-8.586L364.395,92.309z"/>
		<path fill="#8EC63F" d="M408.564,73.43l-6.246-0.021l0.042-12.777l6.247,0.021l0.061-18.267l13.724,0.045L422.331,60.7
			l10.604,0.035l-0.043,12.776l-10.604-0.034l-0.058,17.037c-0.016,4.543,1.777,6.348,6.037,6.361
			c0.761,0.003,1.987-0.089,3.601-0.364l-0.042,12.492c-1.896,0.464-4.168,0.647-6.91,0.64
			c-10.981-0.037-16.451-5.732-16.414-17.093L408.564,73.43L408.564,73.43z"/>
		<path fill="#8EC63F" d="M484.119,66.868c5.188,4.844,7.728,10.815,7.704,17.913c-0.024,7.098-2.604,13.054-7.823,17.96
			c-5.223,4.806-11.476,7.245-18.765,7.222c-7.382-0.025-13.618-2.507-18.812-7.348c-5.094-4.939-7.631-10.913-7.605-18.012
			c0.022-7.099,2.601-13.054,7.727-17.86c5.224-4.904,11.479-7.346,18.859-7.321C472.691,59.445,478.93,61.93,484.119,66.868z
			 M456.489,93.561c2.354,2.375,5.288,3.614,8.789,3.627c3.504,0.013,6.438-1.209,8.814-3.566c2.373-2.454,3.613-5.387,3.625-8.887
			c0.014-3.502-1.208-6.438-3.564-8.812c-2.359-2.469-5.288-3.709-8.792-3.72c-3.501-0.014-6.441,1.208-8.813,3.662
			c-2.374,2.357-3.616,5.285-3.628,8.787C452.908,88.152,454.13,91.188,456.489,93.561z"/>
	</g>
	<path fill="#8EC63F" d="M49.232,51.123l0.911-1.577c1.525-2.64,2.304-5.551,2.314-8.654c0.016-4.86-1.595-8.887-4.924-12.314
		c-3.301-3.406-7.397-5.139-12.175-5.155c-4.782-0.016-8.89,1.69-12.208,5.074c-3.352,3.406-4.989,7.421-5.005,12.281
		c-0.011,3.176,0.704,6.013,2.182,8.677l0.876,1.575L4.908,50.976l-0.231-0.744c-1.027-3.317-1.521-6.423-1.511-9.505
		c0.029-8.677,3.193-16.12,9.414-22.117c6.303-5.997,13.981-9.023,22.824-8.994c8.878,0.03,16.51,3.107,22.679,9.146
		c6.233,6.009,9.381,13.472,9.352,22.179c-0.01,3.082-0.526,6.184-1.575,9.495l-0.237,0.743L49.232,51.123z"/>
	<circle fill="#414042" cx="35.298" cy="41.465" r="7.219"/>
</g>
</svg>
